<svg width="91" height="24" viewBox="0 0 91 24" fill="none" xmlns="http://www.w3.org/2000/svg">
<path d="M0.771125 6.68H4.00313V16.504C4.00313 17.08 4.08846 17.6133 4.25913 18.104C4.45113 18.5733 4.71779 18.9893 5.05913 19.352C5.40046 19.6933 5.80579 19.9707 6.27513 20.184C6.74446 20.376 7.26713 20.472 7.84313 20.472C9.01646 20.472 9.97646 20.0987 10.7231 19.352C11.4698 18.584 11.8431 17.592 11.8431 16.376V6.68H15.0751V23H11.8431V21.176C11.2885 21.8587 10.5951 22.392 9.76313 22.776C8.93113 23.1387 8.02446 23.32 7.04313 23.32C6.10446 23.32 5.25113 23.16 4.48313 22.84C3.71513 22.52 3.05379 22.0827 2.49913 21.528C1.94446 20.9733 1.51779 20.3227 1.21913 19.576C0.920458 18.808 0.771125 17.9867 0.771125 17.112V6.68ZM18.3366 0.599998H26.5286C27.446 0.599998 28.2993 0.759998 29.0886 1.08C29.8993 1.37867 30.5926 1.79467 31.1686 2.328C31.766 2.84 32.2246 3.45867 32.5446 4.184C32.886 4.888 33.0566 5.64533 33.0566 6.456C33.0566 7.416 32.8006 8.30133 32.2886 9.112C31.798 9.90133 31.1366 10.5413 30.3046 11.032C31.5846 11.4587 32.6086 12.184 33.3766 13.208C34.166 14.2107 34.5606 15.3627 34.5606 16.664C34.5606 17.5387 34.39 18.36 34.0486 19.128C33.7073 19.896 33.2273 20.568 32.6086 21.144C32.0113 21.72 31.2966 22.1787 30.4646 22.52C29.654 22.84 28.7686 23 27.8086 23H18.3366V0.599998ZM21.6966 3.448V10.008H26.2726C26.7633 10.008 27.2113 9.92267 27.6166 9.752C28.0433 9.58133 28.406 9.34667 28.7046 9.048C29.0033 8.74933 29.238 8.408 29.4086 8.024C29.5793 7.61867 29.6646 7.192 29.6646 6.744C29.6646 5.80533 29.3446 5.02667 28.7046 4.408C28.086 3.768 27.2753 3.448 26.2726 3.448H21.6966ZM27.3606 20.152C28.4913 20.152 29.4086 19.8 30.1126 19.096C30.8166 18.3707 31.1686 17.4853 31.1686 16.44C31.1686 15.928 31.0726 15.4587 30.8806 15.032C30.6886 14.584 30.422 14.2 30.0806 13.88C29.7606 13.5387 29.366 13.272 28.8966 13.08C28.4273 12.888 27.9153 12.792 27.3606 12.792H21.6966V20.152H27.3606ZM54.0741 14.84C54.0741 16.0133 53.8395 17.1227 53.3701 18.168C52.9221 19.192 52.3035 20.0987 51.5141 20.888C50.7248 21.656 49.7968 22.264 48.7301 22.712C47.6635 23.16 46.5221 23.384 45.3061 23.384C44.0901 23.384 42.9488 23.16 41.8821 22.712C40.8155 22.264 39.8875 21.656 39.0981 20.888C38.3088 20.0987 37.6795 19.192 37.2101 18.168C36.7621 17.1227 36.5381 16.0133 36.5381 14.84C36.5381 13.6667 36.7621 12.568 37.2101 11.544C37.6795 10.4987 38.3088 9.592 39.0981 8.824C39.8875 8.056 40.8155 7.448 41.8821 7C42.9488 6.552 44.0901 6.328 45.3061 6.328C46.5221 6.328 47.6635 6.552 48.7301 7C49.7968 7.448 50.7248 8.056 51.5141 8.824C52.3035 9.592 52.9221 10.4987 53.3701 11.544C53.8395 12.568 54.0741 13.6667 54.0741 14.84ZM50.8421 14.84C50.8421 14.0507 50.6928 13.3147 50.3941 12.632C50.1168 11.9493 49.7221 11.352 49.2101 10.84C48.7195 10.328 48.1328 9.93333 47.4501 9.656C46.7888 9.35733 46.0741 9.208 45.3061 9.208C44.5381 9.208 43.8128 9.35733 43.1301 9.656C42.4688 9.93333 41.8821 10.328 41.3701 10.84C40.8795 11.352 40.4848 11.9493 40.1861 12.632C39.9088 13.3147 39.7701 14.0507 39.7701 14.84C39.7701 15.6293 39.9088 16.376 40.1861 17.08C40.4848 17.7627 40.8795 18.36 41.3701 18.872C41.8821 19.384 42.4688 19.7893 43.1301 20.088C43.8128 20.3653 44.5381 20.504 45.3061 20.504C46.0741 20.504 46.7888 20.3653 47.4501 20.088C48.1328 19.7893 48.7195 19.384 49.2101 18.872C49.7221 18.36 50.1168 17.7627 50.3941 17.08C50.6928 16.376 50.8421 15.6293 50.8421 14.84ZM73.5429 14.84C73.5429 16.0133 73.3082 17.1227 72.8389 18.168C72.3909 19.192 71.7722 20.0987 70.9829 20.888C70.1935 21.656 69.2655 22.264 68.1989 22.712C67.1322 23.16 65.9909 23.384 64.7749 23.384C63.5589 23.384 62.4175 23.16 61.3509 22.712C60.2842 22.264 59.3562 21.656 58.5669 20.888C57.7775 20.0987 57.1482 19.192 56.6789 18.168C56.2309 17.1227 56.0069 16.0133 56.0069 14.84C56.0069 13.6667 56.2309 12.568 56.6789 11.544C57.1482 10.4987 57.7775 9.592 58.5669 8.824C59.3562 8.056 60.2842 7.448 61.3509 7C62.4175 6.552 63.5589 6.328 64.7749 6.328C65.9909 6.328 67.1322 6.552 68.1989 7C69.2655 7.448 70.1935 8.056 70.9829 8.824C71.7722 9.592 72.3909 10.4987 72.8389 11.544C73.3082 12.568 73.5429 13.6667 73.5429 14.84ZM70.3109 14.84C70.3109 14.0507 70.1615 13.3147 69.8629 12.632C69.5855 11.9493 69.1909 11.352 68.6789 10.84C68.1882 10.328 67.6015 9.93333 66.9189 9.656C66.2575 9.35733 65.5429 9.208 64.7749 9.208C64.0069 9.208 63.2815 9.35733 62.5989 9.656C61.9375 9.93333 61.3509 10.328 60.8389 10.84C60.3482 11.352 59.9535 11.9493 59.6549 12.632C59.3775 13.3147 59.2389 14.0507 59.2389 14.84C59.2389 15.6293 59.3775 16.376 59.6549 17.08C59.9535 17.7627 60.3482 18.36 60.8389 18.872C61.3509 19.384 61.9375 19.7893 62.5989 20.088C63.2815 20.3653 64.0069 20.504 64.7749 20.504C65.5429 20.504 66.2575 20.3653 66.9189 20.088C67.6015 19.7893 68.1882 19.384 68.6789 18.872C69.1909 18.36 69.5855 17.7627 69.8629 17.08C70.1615 16.376 70.3109 15.6293 70.3109 14.84ZM79.3156 0.599998V13.88L85.9076 6.68H89.7476L82.3236 14.552L90.1316 23H86.0676L79.3156 15.512V23H76.0836V0.599998H79.3156Z" fill="black"/>
</svg>
